# xmcd
#
# Track frame offsets: 
#        150
#        16195
#        38657
#        62807
#        88890
#        109020
#        123900
#        141795
#        159735
#        177950
#        194022
#
# Disc length: 2845 seconds
#
# Revision: 0
# Processed by: cddbd v1.5.2PL0 Copyright (c) Steve Scherf et al.
# Submitted via: ExactAudioCopy v0.99pb1
#
DISCID=940b1b0b
DTITLE=Mama's Worry - Good Rockin' Blues
DYEAR=1999
DGENRE=Blues
TTITLE0=Sometimes You Get The Blues
TTITLE1=Roll On Big River
TTITLE2=White Boys (Tryin' To Play The Blues)
TTITLE3=You Have Changed
TTITLE4=Big City Blues
TTITLE5=Black Coffee
TTITLE6=Take Me To The River
TTITLE7=Ambitious Suspicious
TTITLE8=Something For Nothing
TTITLE9=Got To Get Back To My Baby
TTITLE10=Down Too Long
EXTD=
EXTT0=
EXTT1=
EXTT2=
EXTT3=
EXTT4=
EXTT5=
EXTT6=
EXTT7=
EXTT8=
EXTT9=
EXTT10=
PLAYORDER=
